<svg width="32" height="32" viewBox="0 0 32 32" fill="none" xmlns="http://www.w3.org/2000/svg">
    <path
        d="M7 9C7 7.89543 7.89543 7 9 7H11.5C13.433 7 15 8.567 15 10.5V12C15 13.1046 14.1046 14 13 14H10.5C8.567 14 7 12.433 7 10.5V9Z"
        fill="#D9D9D9" />
    <rect x="9" y="9" width="4" height="4" rx="2" fill="black" />
    <path
        d="M17 10.5C17 8.567 18.567 7 20.5 7H24C24.5523 7 25 7.44772 25 8V10.5C25 12.433 23.433 14 21.5 14H18C17.4477 14 17 13.5523 17 13V10.5Z"
        fill="#D9D9D9" />
    <rect x="19" y="9" width="4" height="4" rx="2" fill="black" />
</svg>
    