<svg width="32" height="32" viewBox="0 0 32 32" fill="none" xmlns="http://www.w3.org/2000/svg">
    <rect width="32" height="32" fill="#3B3B3B" />
    <g filter="url(#filter0_i_26_422)">
        <rect x="2" y="2" width="28" height="28" rx="8" fill="#606060" />
    </g>
    <path
        d="M14.6667 24C14.2667 24 14 23.7334 14 23.3334V21.3334C14 20.9334 14.2667 20.6667 14.6667 20.6667C15.0667 20.6667 15.3333 20.9334 15.3333 21.3334V23.3334C15.3333 23.7334 15.0667 24 14.6667 24Z"
        fill="#350000" />
    <path
        d="M17.3334 24C16.9334 24 16.6667 23.7334 16.6667 23.3334V21.3334C16.6667 20.9334 16.9334 20.6667 17.3334 20.6667C17.7334 20.6667 18 20.9334 18 21.3334V23.3334C18 23.7334 17.7334 24 17.3334 24Z"
        fill="#350000" />
    <path
        d="M19.3333 24H12.6667C12.2667 24 12 23.7333 12 23.3333V20C10.3333 18.7333 9.33334 16.8 9.33334 14.6667C9.33334 11 12.3333 8 16 8C19.6667 8 22.6667 11 22.6667 14.6667C22.6667 16.8 21.6667 18.7333 20 20V23.3333C20 23.7333 19.7333 24 19.3333 24ZM13.3333 22.6667H18.6667V19.6667C18.6667 19.4667 18.8 19.2667 18.9333 19.1333C20.4 18.1333 21.3333 16.4667 21.3333 14.7333C21.3333 11.8 18.9333 9.4 16 9.4C13.0667 9.4 10.6667 11.8 10.6667 14.7333C10.6667 16.5333 11.5333 18.2 13.0667 19.1333C13.2 19.2 13.3333 19.4 13.3333 19.6667V22.6667Z"
        fill="#350000" />
    <path
        d="M19.3334 17.3333C19.1334 17.3333 19 17.2667 18.8667 17.1333L16.8667 15.1333C16.6 14.8667 16.6 14.4667 16.8667 14.2C17.1334 13.9333 17.5334 13.9333 17.8 14.2L19.8 16.2C20.0667 16.4667 20.0667 16.8667 19.8 17.1333C19.6667 17.2667 19.5334 17.3333 19.3334 17.3333Z"
        fill="#350000" />
    <path
        d="M17.3334 17.3333C17.1334 17.3333 17 17.2667 16.8667 17.1333C16.6 16.8667 16.6 16.4667 16.8667 16.2L18.8667 14.2C19.1334 13.9333 19.5334 13.9333 19.8 14.2C20.0667 14.4667 20.0667 14.8667 19.8 15.1333L17.8 17.1333C17.6667 17.2667 17.5334 17.3333 17.3334 17.3333Z"
        fill="#350000" />
    <path
        d="M14.6667 17.3333C14.4667 17.3333 14.3333 17.2667 14.2 17.1333L12.2 15.1333C11.9333 14.8667 11.9333 14.4667 12.2 14.2C12.4667 13.9333 12.8667 13.9333 13.1333 14.2L15.1333 16.2C15.4 16.4667 15.4 16.8667 15.1333 17.1333C15 17.2667 14.8667 17.3333 14.6667 17.3333Z"
        fill="#350000" />
    <path
        d="M12.6667 17.3333C12.4667 17.3333 12.3333 17.2667 12.2 17.1333C11.9333 16.8667 11.9333 16.4667 12.2 16.2L14.2 14.2C14.4667 13.9333 14.8667 13.9333 15.1333 14.2C15.4 14.4667 15.4 14.8667 15.1333 15.1333L13.1333 17.1333C13 17.2667 12.8667 17.3333 12.6667 17.3333Z"
        fill="#350000" />
    <defs>
        <filter id="filter0_i_26_422" x="2" y="2" width="28" height="28"
            filterUnits="userSpaceOnUse" color-interpolation-filters="sRGB">
            <feFlood flood-opacity="0" result="BackgroundImageFix" />
            <feBlend mode="normal" in="SourceGraphic" in2="BackgroundImageFix" result="shape" />
            <feColorMatrix in="SourceAlpha" type="matrix"
                values="0 0 0 0 0 0 0 0 0 0 0 0 0 0 0 0 0 0 127 0" result="hardAlpha" />
            <feMorphology radius="4" operator="erode" in="SourceAlpha"
                result="effect1_innerShadow_26_422" />
            <feOffset />
            <feGaussianBlur stdDeviation="2" />
            <feComposite in2="hardAlpha" operator="arithmetic" k2="-1" k3="1" />
            <feColorMatrix type="matrix" values="0 0 0 0 1 0 0 0 0 0 0 0 0 0 0 0 0 0 0.25 0" />
            <feBlend mode="normal" in2="shape" result="effect1_innerShadow_26_422" />
        </filter>
    </defs>
</svg>
    