<svg width="32" height="32" viewBox="0 0 32 32" fill="none" xmlns="http://www.w3.org/2000/svg">
    <path
        d="M4.2933 18.2047C3.94102 17.7015 4.62642 17.1264 5.0608 17.5608L5.24504 17.745C5.3973 17.8973 5.62991 17.935 5.82251 17.8387C6.28084 17.6096 6.1392 16.9214 5.62763 16.8919L5.35093 16.8759C4.76938 16.8423 4.60166 16.0641 5.11774 15.7939L9.00423 13.7595C9.32702 13.5905 9.69373 13.5242 10.0553 13.5694L11.2093 13.7137C12.2877 13.8485 12.8714 15.0476 12.3123 15.9796C12.1119 16.3134 12.0489 16.712 12.1365 17.0914L12.751 19.7542C13.0317 20.9708 11.7143 21.9286 10.6436 21.2862L10.3995 21.1397C9.56355 20.6381 8.5 21.2403 8.5 22.2152C8.5 23.2049 7.40738 23.8047 6.57241 23.2733L6.08596 22.9638C5.86655 22.8242 5.61186 22.75 5.35178 22.75H5.20272C4.93908 22.75 4.68602 22.8537 4.49822 23.0387C3.77939 23.7469 2.58231 23.0709 2.81754 22.0897L3.20956 20.4544C3.25562 20.2622 3.33957 20.0812 3.45648 19.9219L4.28674 18.7906C4.41423 18.6169 4.41687 18.3812 4.2933 18.2047Z"
        fill="#EA6E6E" />
    <path
        d="M21.9421 3.2683C22.0231 3.59228 22.5 3.53357 22.5 3.19961V3.11803C22.5 2.83953 22.8754 2.7509 23 3L23.2743 3.41144C23.6751 4.01264 24.4874 4.17509 25.0886 3.77429C25.9323 3.21183 27.0674 3.78149 27.1207 4.79409L27.5 12C27.5461 12.7838 26.4076 12.9363 26.2459 12.1679L26.0695 11.3299C26.0256 11.1215 25.889 10.9445 25.6985 10.8492L23.8933 9.94666C23.0235 9.51173 22 10.1443 22 11.1168C22 12.1491 20.8603 12.7747 19.9894 12.2205L18.4054 11.2125C17.3424 10.5361 17.0063 9.13931 17.6451 8.05337L21.0165 2.322C21.1935 2.02097 21.6466 2.08638 21.7313 2.4252L21.9421 3.2683Z"
        fill="#EA6E6E" />
    <path
        d="M4.21522 3.36304C4.10391 2.65811 4.66569 2.02774 5.37873 2.05745L16 2.5L20.5074 2.31219C21.2571 2.28095 21.8297 2.97376 21.6578 3.70419C21.4223 4.70511 22.5342 5.47718 23.3898 4.90681L23.4603 4.85977C23.7959 4.63604 24.2233 4.60149 24.5904 4.76838L24.8049 4.86587C25.8986 5.36302 25.5441 7 24.3427 7C23.8439 7 23.4055 7.33064 23.2685 7.81023L23.0959 8.4143C22.8586 9.24504 23.6957 9.97686 24.4873 9.63056L25.0455 9.38632C25.6206 9.13472 26.2273 9.6703 26.049 10.2722C25.0343 13.6967 24.9413 17.3283 25.7794 20.8003L27.3675 27.3798C27.6491 28.5463 26.5644 29.5813 25.4124 29.2453C19.2172 27.4383 12.6944 27.0509 6.32886 28.1119L4.70625 28.3823C3.20437 28.6326 2.07529 27.0409 2.80789 25.7062L4.27255 23.0377C4.6238 22.3977 5.29581 22 6.02582 22H6.5L7.1967 21.8009C8.26085 21.4969 8.44901 20.0694 7.5 19.5L7.96977 18.5605C8.24818 18.0036 8.95821 17.8273 9.46479 18.1891C10.2632 18.7594 11.3251 17.9752 11.0148 17.0444L10.512 15.5359C10.2847 14.8542 9.40425 14.6752 8.92887 15.214L8.62019 15.5638C7.90895 16.3699 6.64504 15.4534 7.19008 14.5269L7.35982 14.2383C7.44423 14.0948 7.43128 13.9141 7.32728 13.7841C6.12977 12.2872 5.34277 10.5042 5.0438 8.61072L4.21522 3.36304Z"
        fill="#9DEA6E" />
    <path
        d="M11.5653 6.06528C11.0965 5.59645 11.3183 4.79542 11.9615 4.63461L12.3045 4.54888C12.4324 4.5169 12.5493 4.45074 12.6425 4.35749L13.1367 3.86333C13.5197 3.48034 14.1637 3.84502 14.0324 4.37048V4.37048C14.0111 4.45552 14.0111 4.54448 14.0324 4.62952L14.4808 6.42309C14.4935 6.47398 14.5149 6.52231 14.544 6.56596V6.56596C14.8043 6.95649 14.3783 7.43913 13.9585 7.22923L13.6789 7.08945C13.5635 7.03173 13.4312 7.01721 13.306 7.04851L12.3146 7.29635C11.9945 7.37637 11.728 7.04408 11.8755 6.74897V6.74897C11.9499 6.60029 11.9207 6.42072 11.8032 6.30317L11.5653 6.06528Z"
        fill="#70BF40" />
    <path
        d="M17.4864 14.7027C16.7174 14.8565 16 14.2684 16 13.4842V13.3243C16 13.111 16.0497 12.9007 16.145 12.7099L16.2215 12.5571C16.6729 11.6542 17.7033 11.201 18.6739 11.4783L19.6805 11.7659C20.2183 11.9195 20.786 11.9364 21.332 11.8151L23.2523 11.3884C24.195 11.1789 25.1166 11.8163 25.2532 12.7724V12.7724C25.3874 13.7119 24.7071 14.5721 23.762 14.658L20.3835 14.9651C20.1538 14.986 19.9625 15.1499 19.9066 15.3735V15.3735C19.7791 15.8838 19.0727 15.9317 18.8774 15.4434L18.712 15.0299C18.5891 14.7228 18.2647 14.5471 17.9404 14.6119L17.4864 14.7027Z"
        fill="#70BF40" />
</svg>
    